<?xml version="1.0" ?><svg enable-background="new 0 0 200.6119 221.9787" id="Layer_1" version="1.1" viewBox="0 0 200.6119 221.9787" xml:space="preserve" xmlns="http://www.w3.org/2000/svg" xmlns:xlink="http://www.w3.org/1999/xlink"><g><path d="M86.1695,117.694c-0.1084,0-0.2168-0.0015-0.3242-0.0029c-0.5039,0.0591-1.0273,0.0879-1.5938,0.0879   c-1.8789,0-3.9277-0.3193-6.4268-0.7988c-0.0173-0.0033-0.037-0.0071-0.0545-0.0105l30.3367,42.593L94.229,205.8884   c-1.9805,6.6128,1.7744,13.5801,8.3877,15.561c1.1963,0.3584,2.4043,0.5293,3.5918,0.5293c5.3789,0,10.3467-3.4995,11.9697-8.916   l15.6328-52.1841c1.1064-3.6958,0.4453-7.6958-1.793-10.8389l-24.677-34.6465l-19.6208,2.2197   C87.231,117.6672,86.7251,117.694,86.1695,117.694z"/><path d="M123.0005,46.798c-9.9755-2.0472-17.3221-9.8549-19.2899-19.2397c-0.6292-0.2581-1.2878-0.478-1.9676-0.6639   c-0.5953-0.2045-1.2023-0.3376-1.8118-0.3969c-7.5885-1.266-17.3182,1.8911-23.8136,12.3029l12.7533-3.3707   c0.8633-0.2285,1.752-0.3447,2.6396-0.3447c4.6641,0,8.7559,3.1543,9.9502,7.6704c1.4512,5.4912-1.8359,11.1392-7.3262,12.5903   l-29.6274,7.8305c-2.9026,8.6728-4.5304,17.7595-5.5555,29.5788c-0.1709,16.4004,10.3066,20.2393,19.3066,21.9663   c2.9873,0.5732,5.4434,0.937,7.4678,0.6665c0.5723,0.0146,1.1504,0.0049,1.7354-0.0605l48.9355-5.5361l43.3867,38.7666   c2.3838,2.1304,5.3594,3.1787,8.3242,3.1787c3.4355,0,6.8555-1.4082,9.3252-4.1714c4.5996-5.1479,4.1553-13.0498-0.9932-17.6499   l-47.5596-42.4951c-2.6553-2.3726-6.2021-3.4976-9.7334-3.0996l-43.5107,4.9224c3.2432-13.1382,9.1992-26.0762,13.3125-35.9219   c0.5751-1.0964,1.0575-2.2413,1.4575-3.4104l2.0372,1.1385l62.7377,35.0608c1.2354,0.6904,2.5742,1.0181,3.8955,1.0181   c2.8042,0,5.5259-1.4771,6.9907-4.0986c2.1553-3.8569,0.7764-8.731-3.0806-10.8862l-46.905-26.2128   c-2.5477,0.8875-5.2646,1.3785-8.0724,1.3785C126.3374,47.3088,124.6519,47.1369,123.0005,46.798z"/><path d="M93.5468,53.1221c4.2715-1.1289,6.8193-5.5068,5.6904-9.7788c-1.1289-4.2705-5.5068-6.8218-9.7783-5.6899L5.9579,59.7227   c-4.2715,1.1289-6.8193,5.5068-5.6904,9.7788C1.2157,73.0879,4.454,75.459,7.997,75.459c0.6758,0,1.3643-0.0864,2.0488-0.2676   L93.5468,53.1221z"/><ellipse cx="158.3868" cy="168.0807" rx="18.1628" ry="18.1629" transform="matrix(0.1022 -0.9948 0.9948 0.1022 -24.9994 308.4624)"/><ellipse cx="127.9854" cy="22.5044" rx="22.5" ry="22.5" transform="matrix(0.0607 -0.9982 0.9982 0.0607 97.7509 148.8871)"/></g></svg>