<?xml version="1.0" ?><svg id="object" viewBox="0 0 32 32" xmlns="http://www.w3.org/2000/svg"><defs><style>.cls-1{fill:#6d6daa;}</style></defs><title/><path class="cls-1" d="M16,31A15,15,0,1,1,31,16,15,15,0,0,1,16,31ZM16,3A13,13,0,1,0,29,16,13,13,0,0,0,16,3Z"/><path class="cls-1" d="M16,31C10.49,31,6,24.27,6,16S10.49,1,16,1,26,7.73,26,16,21.51,31,16,31ZM16,3C11.59,3,8,8.83,8,16s3.59,13,8,13,8-5.83,8-13S20.41,3,16,3Z"/><path class="cls-1" d="M16,12A18.52,18.52,0,0,1,4.27,8.25a1,1,0,0,1-.15-1.38,15,15,0,0,1,23.76,0,1,1,0,0,1-.15,1.38A18.52,18.52,0,0,1,16,12ZM6.34,7.32A17.25,17.25,0,0,0,16,10a17.25,17.25,0,0,0,9.66-2.68,13,13,0,0,0-19.32,0Z"/><path class="cls-1" d="M16,31A14.88,14.88,0,0,1,4.12,25.13a1,1,0,0,1,.15-1.38A18.52,18.52,0,0,1,16,20a18.52,18.52,0,0,1,11.73,3.75,1,1,0,0,1,.15,1.38A14.88,14.88,0,0,1,16,31ZM6.34,24.68a13,13,0,0,0,19.32,0A17.25,17.25,0,0,0,16,22,17.25,17.25,0,0,0,6.34,24.68Z"/><path class="cls-1" d="M16,31a1,1,0,0,1-1-1V2a1,1,0,0,1,2,0V30A1,1,0,0,1,16,31Z"/></svg>