<?xml version="1.0" standalone="no"?>
<!DOCTYPE svg PUBLIC "-//W3C//DTD SVG 20010904//EN"
 "http://www.w3.org/TR/2001/REC-SVG-20010904/DTD/svg10.dtd">
<svg version="1.0" xmlns="http://www.w3.org/2000/svg"
 width="878.000000pt" height="977.000000pt" viewBox="0 0 878.000000 977.000000"
 preserveAspectRatio="xMidYMid meet">

<g transform="translate(0.000000,977.000000) scale(0.100000,-0.100000)"
fill="#000000" stroke="none">
<path d="M4450 9574 c-140 -26 -253 -64 -380 -130 -196 -101 -336 -212 -589
-464 -261 -260 -403 -365 -585 -432 -83 -31 -181 -41 -238 -25 -24 6 -28 4
-28 -13 0 -41 159 -120 405 -200 72 -23 135 -47 140 -53 16 -16 -172 1 -263
24 -45 11 -110 31 -144 44 l-63 24 63 -58 c124 -116 294 -179 457 -168 146 10
277 52 416 134 62 37 91 63 155 142 106 129 391 414 485 483 194 144 320 181
470 136 36 -10 38 -9 104 47 77 65 147 112 229 152 31 15 56 31 56 35 0 4 -9
32 -21 63 -40 108 -156 196 -314 240 -58 16 -299 29 -355 19z"/>
<path d="M5395 9244 c-237 -55 -357 -117 -508 -263 -347 -336 -378 -875 -73
-1257 117 -146 296 -264 476 -314 499 -137 1008 148 1156 647 37 126 44 311
16 443 -71 346 -318 614 -659 716 -75 23 -111 27 -238 30 -82 1 -159 1 -170
-2z"/>
<path d="M4060 8141 c-246 -55 -454 -195 -618 -416 -73 -99 -73 -97 5 -75 236
64 495 130 538 135 109 15 241 -31 328 -114 212 -200 171 -535 -84 -684 -30
-18 -238 -77 -674 -192 -346 -91 -636 -169 -644 -173 -38 -21 -142 -434 -191
-757 -77 -516 -68 -729 41 -954 57 -116 186 -247 305 -309 169 -87 416 -150
624 -158 114 -5 213 4 1144 110 560 64 1029 116 1041 116 16 0 290 -238 942
-821 505 -452 941 -834 968 -850 151 -88 339 -93 504 -13 74 36 188 151 224
226 90 189 69 402 -56 561 -35 45 -2051 1850 -2111 1890 -61 41 -185 77 -264
77 -37 0 -473 -45 -970 -101 -496 -56 -904 -100 -907 -97 -6 5 32 146 75 283
84 266 194 550 365 950 59 138 121 282 138 322 l31 72 30 -18 c184 -110 2702
-1508 2735 -1518 181 -54 370 59 417 249 19 77 11 147 -26 224 -44 89 -62 101
-1096 679 l-990 553 -68 -18 c-405 -113 -852 43 -1103 383 -62 84 -128 220
-157 319 l-23 83 -69 23 c-98 33 -286 39 -404 13z"/>
<path d="M3980 7693 c-59 -11 -3547 -936 -3577 -948 -52 -22 -138 -110 -164
-168 -19 -41 -24 -70 -24 -137 0 -101 20 -154 86 -225 68 -74 149 -108 253
-106 71 1 3551 920 3624 957 104 53 182 178 182 294 0 122 -85 253 -197 302
-59 26 -138 40 -183 31z"/>
<path d="M4225 4394 c-400 -47 -555 -53 -690 -29 -43 8 -80 13 -82 12 -1 -2
281 -401 627 -887 347 -486 630 -887 630 -891 0 -5 -129 -437 -286 -961 -157
-524 -293 -984 -301 -1023 -65 -306 191 -615 512 -615 179 0 364 107 453 261
22 39 124 365 357 1144 180 600 335 1123 346 1164 31 121 21 230 -31 349 -11
24 -256 376 -546 783 l-526 739 -46 -1 c-26 -1 -213 -21 -417 -45z"/>
<path d="M6684 2996 c-168 -32 -296 -99 -411 -213 -303 -304 -292 -808 26
-1094 253 -229 610 -263 909 -88 73 44 207 178 251 253 75 127 118 303 107
441 -21 276 -179 512 -421 630 -149 73 -316 99 -461 71z"/>
</g>
</svg>
