<?xml version="1.0" ?><svg viewBox="0 0 24 24" xmlns="http://www.w3.org/2000/svg"><g id="Glyph"><path d="M9,21.62l.33-2.57a5,5,0,0,1,1.43-2.9l5.68-5.69A5,5,0,0,1,19,9.13V6a5,5,0,0,0-5-5H6A5,5,0,0,0,1,6V18a5,5,0,0,0,5,5H9.18A2.94,2.94,0,0,1,9,21.62ZM5,7h8a1,1,0,0,1,0,2H5A1,1,0,0,1,5,7Zm0,4h6a1,1,0,0,1,0,2H5a1,1,0,0,1,0-2Zm2,6H5a1,1,0,0,1,0-2H7a1,1,0,0,1,0,2Zm15.12-.88-5.69,5.69a2.93,2.93,0,0,1-1.74.85L12.13,23H12a1,1,0,0,1-1-1.13l.33-2.56a2.93,2.93,0,0,1,.85-1.74l5.69-5.69a3.08,3.08,0,0,1,4.24,0A3,3,0,0,1,22.12,16.12Z"/></g></svg>