<?xml version="1.0"?><svg viewBox="0 0 24 24" xmlns="http://www.w3.org/2000/svg"><g id="Glyph"><path d="M6.35,11A5.94,5.94,0,0,1,6,9,6,6,0,0,1,9.77,3.43,3.89,3.89,0,0,0,8,3,4,4,0,0,0,4.67,9.2,5,5,0,0,0,1,14a3,3,0,0,0,2.08,2.84A9.11,9.11,0,0,1,6.35,11Z"/><path d="M19.33,9.2A4,4,0,0,0,16,3a3.89,3.89,0,0,0-1.77.43A6,6,0,0,1,18,9a5.94,5.94,0,0,1-.35,2,9.11,9.11,0,0,1,3.27,5.83A3,3,0,0,0,23,14,5,5,0,0,0,19.33,9.2Z"/><path d="M15,11.67a4,4,0,1,0-5.92,0A7,7,0,0,0,5,18a3,3,0,0,0,3,3h8a3,3,0,0,0,3-3A7,7,0,0,0,15,11.67Z"/></g></svg>