<?xml version="1.0"?><svg viewBox="0 0 24 24" xmlns="http://www.w3.org/2000/svg"><g data-name="46. Internet" id="_46._Internet"><path d="M12,0A12,12,0,1,0,24,12,12.013,12.013,0,0,0,12,0ZM8.961,17h6.078A13.84,13.84,0,0,1,12,21.622,13.84,13.84,0,0,1,8.961,17Zm-.616-2a13.216,13.216,0,0,1,0-6h7.31a13.216,13.216,0,0,1,0,6ZM2,12a9.986,9.986,0,0,1,.461-3H6.3a15.1,15.1,0,0,0,0,6H2.461A9.986,9.986,0,0,1,2,12ZM15.039,7H8.961A13.84,13.84,0,0,1,12,2.378,13.84,13.84,0,0,1,15.039,7ZM17.7,9h3.84a9.992,9.992,0,0,1,0,6H17.7a15.1,15.1,0,0,0,0-6Zm2.948-2H17.175A15.554,15.554,0,0,0,14.63,2.363,10.027,10.027,0,0,1,20.647,7ZM9.37,2.363A15.554,15.554,0,0,0,6.825,7H3.353A10.027,10.027,0,0,1,9.37,2.363ZM3.353,17H6.825A15.554,15.554,0,0,0,9.37,21.637,10.027,10.027,0,0,1,3.353,17ZM14.63,21.637A15.554,15.554,0,0,0,17.175,17h3.472A10.027,10.027,0,0,1,14.63,21.637Z"/></g></svg>