<?xml version="1.0" ?><svg data-name="Layer 1" id="Layer_1" viewBox="0 0 512 512" xmlns="http://www.w3.org/2000/svg"><path d="M327.09,453a171,171,0,0,1-142.18,0,5,5,0,1,0-4.18,9.08,180.93,180.93,0,0,0,150.54,0,5,5,0,0,0-4.18-9.08Z" style="fill:#231f20"/><path d="M166.72,138.35A179.9,179.9,0,0,0,79.48,241.66a5,5,0,1,0,9.5,3.12,169.91,169.91,0,0,1,82.42-97.59,5,5,0,0,0-4.68-8.84Z" style="fill:#231f20"/><path d="M427.77,248.22a5,5,0,0,0,4.75-6.56,179.9,179.9,0,0,0-87.24-103.31,5,5,0,1,0-4.68,8.84A169.91,169.91,0,0,1,423,244.78,5,5,0,0,0,427.77,248.22Z" style="fill:#231f20"/><path d="M212.5,215.25a5,5,0,0,0,5-5V150.44a30.4,30.4,0,0,1,30.36-30.36H261.3a33.23,33.23,0,0,1,33.2,33.2v57a5,5,0,0,0,10,0v-57a43.24,43.24,0,0,0-25.91-39.58,43.3,43.3,0,1,0-46.09-.58,40.41,40.41,0,0,0-25,37.32v59.81A5,5,0,0,0,212.5,215.25ZM222.71,76.79A33.29,33.29,0,1,1,256,110.08,33.32,33.32,0,0,1,222.71,76.79Z" style="fill:#231f20"/><path d="M456.33,361.56a43.3,43.3,0,1,0-46.09-.58,40.41,40.41,0,0,0-25,37.32v59.8a5,5,0,0,0,10,0V398.3a30.41,30.41,0,0,1,30.37-30.37H439a33.24,33.24,0,0,1,33.2,33.2v57a5,5,0,0,0,10,0v-57A43.24,43.24,0,0,0,456.33,361.56Zm-55.88-36.92a33.29,33.29,0,1,1,33.29,33.29A33.33,33.33,0,0,1,400.45,324.64Z" style="fill:#231f20"/><path d="M100.85,361.56A43.3,43.3,0,1,0,54.77,361a40.41,40.41,0,0,0-25,37.32v59.8a5,5,0,0,0,10,0V398.3a30.4,30.4,0,0,1,30.36-30.37H83.57a33.25,33.25,0,0,1,33.2,33.2v57a5,5,0,0,0,10,0v-57A43.25,43.25,0,0,0,100.85,361.56ZM45,324.64a33.29,33.29,0,1,1,33.29,33.29A33.34,33.34,0,0,1,45,324.64Z" style="fill:#231f20"/></svg>