<?xml version="1.0"?><!DOCTYPE svg  PUBLIC '-//W3C//DTD SVG 1.1//EN'  'http://www.w3.org/Graphics/SVG/1.1/DTD/svg11.dtd'><svg enable-background="new 0 0 128 128" height="128px" id="Layer_1" version="1.1" viewBox="0 0 128 128" width="128px" xml:space="preserve" xmlns="http://www.w3.org/2000/svg" xmlns:xlink="http://www.w3.org/1999/xlink"><g><g><circle cx="102" cy="33" r="17"/><path d="M112,54H92c-5.936,0-11.132,3.282-13.894,8.113C88.147,63.17,96,71.684,96,82v13.711C97.904,95.898,99.894,96,102,96    c10.453,0,18.117-2.382,26-6.412V70C128,61.2,120.799,54,112,54z"/><circle cx="26" cy="33" r="17"/><path d="M49.893,62.113C47.131,57.282,41.934,54,36,54H16C7.199,54,0,61.2,0,70v19.588C7.882,93.618,15.547,96,26,96    c2.106,0,4.095-0.102,6-0.289V82C32,71.684,39.852,63.17,49.893,62.113z"/><circle cx="64" cy="44" r="18"/><path d="M76.523,66.026C76.348,66.021,76.177,66,76,66H64H52c-0.177,0-0.348,0.021-0.523,0.026C42.919,66.308,36,73.377,36,82    v23.588c7.882,4.03,17.547,6.412,28,6.412s20.117-2.382,28-6.412V82C92,73.377,85.081,66.308,76.523,66.026z"/></g></g></svg>