<?xml version="1.0" encoding="UTF-8"?>
<svg xmlns="http://www.w3.org/2000/svg" viewBox="0 0 24 24" aria-hidden="true">
  <!-- Drinks (left, centered as pair) -->
  <g transform="translate(6, 12) scale(0.76) translate(-12, -12)">
    <rect x="14.2" y="2.2" width="1.8" height="11.5" rx="0.9" transform="rotate(16 15.1 7.9)" fill="#000000" />
    <path
      fill="#000000"
      d="M6.2 9.4c0-1 .9-1.8 2-1.8h7.6c1.1 0 2 .8 2 1.8l-1.3 10c-.2 1.3-1.2 2.2-2.5 2.2h-4c-1.3 0-2.3-.9-2.5-2.2L6.2 9.4z"
    />
    <ellipse cx="12" cy="9.4" rx="6" ry="1.7" fill="#000000" />
    <ellipse cx="12" cy="12.4" rx="4" ry="0.85" fill="#ffffff" />
    <circle cx="9.8" cy="14.8" r="0.75" fill="#ffffff" />
    <circle cx="13.6" cy="15.6" r="0.6" fill="#ffffff" />
  </g>
  <!-- Snacks (right, centered as pair) -->
  <g transform="translate(18, 12) scale(0.66) translate(-12, -12.5)">
    <circle cx="12" cy="12.5" r="8.2" fill="#000000" />
    <circle cx="9.2" cy="10.2" r="1.15" fill="#ffffff" />
    <circle cx="14.8" cy="9.8" r="1" fill="#ffffff" />
    <circle cx="12.2" cy="14.8" r="1.1" fill="#ffffff" />
    <circle cx="16.2" cy="13.6" r="0.9" fill="#ffffff" />
    <circle cx="7.8" cy="14.2" r="0.85" fill="#ffffff" />
    <circle cx="10.5" cy="16.5" r="0.75" fill="#ffffff" />
  </g>
</svg>
