<?xml version="1.0" encoding="UTF-8"?>
<svg xmlns="http://www.w3.org/2000/svg" viewBox="0 0 24 24" aria-hidden="true">
  <!-- Knot -->
  <path fill="#000000" d="M9 2h6l-1.2 2.3h-3.6L9 2z" />
  <!-- Neck band -->
  <rect x="8.2" y="4.8" width="7.6" height="1.7" rx="0.85" fill="#000000" />
  <!-- Bag body -->
  <path
    fill="#000000"
    d="M12 6.7c-4.5 0-7.8 3.3-7.8 7.7 0 4.6 3.2 7.9 7.8 7.9s7.8-3.3 7.8-7.9c0-4.4-3.3-7.7-7.8-7.7z"
  />
  <!-- Dollar sign knockout -->
  <path
    fill="#ffffff"
    d="M12.5 9.2v1h.3c1.4 0 2.5 1.1 2.5 2.4h-1.5c0-.5-.4-.9-1-.9h-1.2c-.5 0-.9.4-.9.9s.4.9.9.9h1c1.4 0 2.6 1.1 2.6 2.5s-1 2.4-2.4 2.5v1h-1.4v-1h-.1c-1.4 0-2.5-1.1-2.5-2.4h1.5c0 .5.4.9 1 .9h1.1c.5 0 .9-.4.9-.9s-.4-.9-.9-.9h-1c-1.4 0-2.6-1.1-2.6-2.5s1-2.4 2.3-2.5v-1h1.4z"
  />
</svg>
